<svg xmlns="http://www.w3.org/2000/svg" width="1024" height="1024" viewBox="0 0 1024 1024" role="img" aria-label="C0PL4ND app icon">
  <title>C0PL4ND app icon</title>
  <desc>Master app icon (full detail, >=256px). Bold centered terminal prompt chevron and offset cursor block in signal teal on a void-black CRT plate; phosphor glow, subtle scanlines, 1-step vignette, thin operator-violet ring, and corner registration ticks. Mark and chrome share geometry with the small-size and monochrome siblings so the glyph never resizes across the icon family.</desc>
  <defs>
    <pattern id="ca-scan" width="16" height="16" patternUnits="userSpaceOnUse">
      <rect width="16" height="16" fill="#08060d"/>
      <rect width="16" height="3" fill="#f0eef5" opacity="0.045"/>
    </pattern>
    <radialGradient id="ca-vig" cx="50%" cy="46%" r="64%">
      <stop offset="0%" stop-color="#08060d" stop-opacity="0"/>
      <stop offset="78%" stop-color="#08060d" stop-opacity="0"/>
      <stop offset="100%" stop-color="#08060d" stop-opacity="0.6"/>
    </radialGradient>
    <radialGradient id="ca-glow" cx="50%" cy="50%" r="56%">
      <stop offset="0%" stop-color="#00e5ff" stop-opacity="0.12"/>
      <stop offset="100%" stop-color="#00e5ff" stop-opacity="0"/>
    </radialGradient>
    <filter id="ca-phos" x="-20%" y="-20%" width="140%" height="140%">
      <feGaussianBlur stdDeviation="7" result="b"/><feMerge><feMergeNode in="b"/><feMergeNode in="SourceGraphic"/></feMerge>
    </filter>
    <clipPath id="ca-clip"><rect x="80" y="80" width="864" height="864" rx="176"/></clipPath>
  </defs>

  <rect x="80" y="80" width="864" height="864" rx="176" fill="#08060d"/>
  <g clip-path="url(#ca-clip)">
    <rect x="80" y="80" width="864" height="864" fill="url(#ca-scan)"/>
    <rect x="80" y="80" width="864" height="864" fill="url(#ca-glow)"/>
    <rect x="80" y="80" width="864" height="864" fill="url(#ca-vig)"/>
  </g>

  <rect x="80" y="80" width="864" height="864" rx="176" fill="none" stroke="#a020ff" stroke-width="10"/>

  <g stroke="#00e5ff" stroke-width="8" opacity="0.55">
    <line x1="168" y1="168" x2="248" y2="168"/><line x1="168" y1="168" x2="168" y2="248"/>
    <line x1="856" y1="168" x2="776" y2="168"/><line x1="856" y1="168" x2="856" y2="248"/>
    <line x1="168" y1="856" x2="248" y2="856"/><line x1="168" y1="856" x2="168" y2="776"/>
    <line x1="856" y1="856" x2="776" y2="856"/><line x1="856" y1="856" x2="856" y2="776"/>
  </g>

  <g filter="url(#ca-phos)">
    <path d="M312 336 L520 512 L312 688" fill="none" stroke="#00e5ff" stroke-width="92" stroke-linecap="round" stroke-linejoin="round"/>
    <rect x="576" y="566" width="168" height="64" rx="8" fill="#00ffb3"/>
  </g>
</svg>
