<svg xmlns="http://www.w3.org/2000/svg" viewBox="0 0 1024 1024" width="1024" height="1024" role="img" aria-label="F0RG3-W1R3 app icon — forge-bus anvil sigil">
  <title>F0RG3-W1R3 app icon — forge-bus anvil sigil</title>
  <rect x="20" y="20" width="984" height="984" rx="208" fill="#0e0703"/>
  <rect x="60" y="60" width="904" height="904" rx="172" fill="none" stroke="#512c13" stroke-width="2.5"/>
  <g stroke="#7f451e" stroke-width="3.2" stroke-linecap="round">
    <line x1="128" y1="150" x2="172" y2="150"/><line x1="150" y1="128" x2="150" y2="172"/>
    <line x1="852" y1="150" x2="896" y2="150"/><line x1="874" y1="128" x2="874" y2="172"/>
    <line x1="128" y1="874" x2="172" y2="874"/><line x1="150" y1="852" x2="150" y2="896"/>
    <line x1="852" y1="874" x2="896" y2="874"/><line x1="874" y1="852" x2="874" y2="896"/>
  </g>
  <path d="M 512.0 186.0 L 794.3 349.0 L 794.3 675.0 L 512.0 838.0 L 229.7 675.0 L 229.7 349.0 Z" fill="none" stroke="#ff8a3d" stroke-width="13.0" stroke-linejoin="round" stroke-linecap="round"/>
  <g fill="none" stroke="#ff8a3d" stroke-width="6.5" stroke-linecap="round" stroke-linejoin="round">
    <path d="M 340 548 L 392 522 L 652 522 L 652 556 L 566 556 L 566 600 L 604 600 L 604 628 L 420 628 L 420 600 L 458 600 L 458 556 L 392 556 Z"/>
  </g>
  <g fill="none" stroke="#8c4b21" stroke-width="3.2" stroke-linecap="round">
    <line x1="392.0" y1="540.0" x2="640.0" y2="540.0"/>
  </g>
  <g fill="none" stroke="#ff8a3d" stroke-width="6.5" stroke-linecap="round" stroke-linejoin="round">
    <path d="M 473 448 L 559 448 Q 566 448 566 455 L 566 479 Q 566 486 559 486 L 473 486 Q 466 486 466 479 L 466 455 Q 466 448 473 448 Z"/>
    <line x1="560.0" y1="466.0" x2="632.0" y2="404.0"/>
  </g>
  <g fill="none" stroke="#ff8a3d" stroke-width="3.2" stroke-linecap="round">
    <line x1="512.0" y1="492.0" x2="512.0" y2="468.0"/>
    <line x1="524.3" y1="496.2" x2="539.1" y2="477.3"/>
    <line x1="499.7" y1="496.2" x2="484.9" y2="477.3"/>
    <line x1="530.5" y1="504.5" x2="552.8" y2="495.5"/>
    <line x1="493.5" y1="504.5" x2="471.2" y2="495.5"/>
  </g>
  <g fill="#8c4b21">
    <circle cx="596.0" cy="472.0" r="5.0"/>
    <circle cx="628.0" cy="500.0" r="4.0"/>
    <circle cx="572.0" cy="440.0" r="4.0"/>
  </g>
  <g fill="#ff8a3d">
    <circle cx="512.0" cy="512.0" r="14.0"/>
  </g>
  <g fill="#0e0703">
    <circle cx="512.0" cy="512.0" r="4.8"/>
  </g>
  <style>@media (prefers-reduced-motion: reduce){*{animation:none !important}}</style>
</svg>
